  0
SECTION
  2
HEADER
  9
$ACADVER
  1
AC1009
  9
$INSBASE
 10
0.000000
 20
0.000000
  9
$LIMMIN
 10
-203.200000
 20
-152.400000
  9
$LIMMAX
 10
609.600000
 20
457.200000
  9
$EXTMIN
 10
-203.200000
 20
-152.400000
  9
$EXTMAX
 10
609.600000
 20
457.200000
  9
$ATTMODE
 70
0
  9
$LUNITS
 70
2
  9
$LUPREC
 70
2
  9
$THICKNESS
 40
0.264160
  0
ENDSEC
  0
SECTION
  2
TABLES
  0
TABLE
  2
LTYPE
 70
1
  0
LTYPE
  3
Solid Line
  2
CONTINUOUS
 70
0
 72
65
 73
0
 40
0.000000
  0
ENDTAB
  0
TABLE
  2
LAYER
 70
6
  0
LAYER
  2
BG_OUTLINE
 70
0
 62
110
  6
CONTINUOUS
  0
LAYER
  2
BO_SILKSCREEN_BOTTOM
 70
0
 62
134
  6
CONTINUOUS
  0
LAYER
  2
PG_SILKSCREEN_BOTTOM
 70
0
 62
134
  6
CONTINUOUS
  0
LAYER
  2
RE_SILKSCREEN_BOTTOM
 70
0
 62
134
  6
CONTINUOUS
  0
LAYER
  2
RE_DISPLAY_TOP
 70
0
 62
142
  6
CONTINUOUS
  0
LAYER
  2
PIN_BOTTOM
 70
0
 62
111
  6
CONTINUOUS
  0
ENDTAB
  0
TABLE
  2
STYLE
 70
1
  0
STYLE
  2
STANDARD
 70
0
 40
0.000000
 41
1.000000
 50
0.000000
 71
0
 42
0.200000
  3
txt
  0
ENDTAB
  0
ENDSEC
  0
SECTION
  2
BLOCKS
  0
BLOCK
  8
0
  2
FIGURE_CIRCLE
 70
0
 10
0.000000
 20
0.000000
  0
CIRCLE
  8
0
 10
0.000000
 20
0.000000
 40
0.500000
  0
ENDBLK
  0
BLOCK
  8
0
  2
FIGURE_SQUARE
 70
0
 10
0.000000
 20
0.000000
  0
POLYLINE
  8
0
 66
1
 70
1
 40
0.000000
 41
0.000000
 39
0.000000
  0
VERTEX
  8
0
 10
-0.500000
 20
-0.500000
 40
0.000000
 41
0.000000
 42
0.000000
  0
VERTEX
  8
0
 10
-0.500000
 20
0.500000
 40
0.000000
 41
0.000000
 42
0.000000
  0
VERTEX
  8
0
 10
0.500000
 20
0.500000
 40
0.000000
 41
0.000000
 42
0.000000
  0
VERTEX
  8
0
 10
0.500000
 20
-0.500000
 40
0.000000
 41
0.000000
 42
0.000000
  0
SEQEND
  0
ENDBLK
  0
BLOCK
  8
0
  2
FIGURE_HEX
 70
0
 10
0.000000
 20
0.000000
  0
POLYLINE
  8
0
 66
1
 70
1
 40
0.000000
 41
0.000000
 39
0.000000
  0
VERTEX
  8
0
 10
-0.500000
 20
0.000000
 40
0.000000
 41
0.000000
 42
0.000000
  0
VERTEX
  8
0
 10
-0.250000
 20
0.500000
 40
0.000000
 41
0.000000
 42
0.000000
  0
VERTEX
  8
0
 10
0.250000
 20
0.500000
 40
0.000000
 41
0.000000
 42
0.000000
  0
VERTEX
  8
0
 10
0.500000
 20
0.000000
 40
0.000000
 41
0.000000
 42
0.000000
  0
VERTEX
  8
0
 10
0.250000
 20
-0.500000
 40
0.000000
 41
0.000000
 42
0.000000
  0
VERTEX
  8
0
 10
-0.250000
 20
-0.500000
 40
0.000000
 41
0.000000
 42
0.000000
  0
SEQEND
  0
ENDBLK
  0
BLOCK
  8
0
  2
FIGURE_OCT
 70
0
 10
0.000000
 20
0.000000
  0
POLYLINE
  8
0
 66
1
 70
1
 40
0.000000
 41
0.000000
 39
0.000000
  0
VERTEX
  8
0
 10
-0.500000
 20
-0.207100
 40
0.000000
 41
0.000000
 42
0.000000
  0
VERTEX
  8
0
 10
-0.500000
 20
0.207100
 40
0.000000
 41
0.000000
 42
0.000000
  0
VERTEX
  8
0
 10
-0.207100
 20
0.500000
 40
0.000000
 41
0.000000
 42
0.000000
  0
VERTEX
  8
0
 10
0.207100
 20
0.500000
 40
0.000000
 41
0.000000
 42
0.000000
  0
VERTEX
  8
0
 10
0.500000
 20
0.207100
 40
0.000000
 41
0.000000
 42
0.000000
  0
VERTEX
  8
0
 10
0.500000
 20
-0.207100
 40
0.000000
 41
0.000000
 42
0.000000
  0
VERTEX
  8
0
 10
0.207100
 20
-0.500000
 40
0.000000
 41
0.000000
 42
0.000000
  0
VERTEX
  8
0
 10
-0.207100
 20
-0.500000
 40
0.000000
 41
0.000000
 42
0.000000
  0
SEQEND
  0
ENDBLK
  0
BLOCK
  8
0
  2
FIGURE_OBLONG
 70
0
 10
0.000000
 20
0.000000
  0
POLYLINE
  8
0
 66
1
 70
1
 40
0.000000
 41
0.000000
 39
0.000000
  0
VERTEX
  8
0
 10
-0.500000
 20
-0.125000
 40
0.000000
 41
0.000000
 42
0.000000
  0
VERTEX
  8
0
 10
-0.500000
 20
0.125000
 40
0.000000
 41
0.000000
 42
0.000000
  0
VERTEX
  8
0
 10
-0.416000
 20
0.375000
 40
0.000000
 41
0.000000
 42
0.000000
  0
VERTEX
  8
0
 10
-0.250000
 20
0.500000
 40
0.000000
 41
0.000000
 42
0.000000
  0
VERTEX
  8
0
 10
0.250000
 20
0.500000
 40
0.000000
 41
0.000000
 42
0.000000
  0
VERTEX
  8
0
 10
0.416000
 20
0.375000
 40
0.000000
 41
0.000000
 42
0.000000
  0
VERTEX
  8
0
 10
0.500000
 20
0.125000
 40
0.000000
 41
0.000000
 42
0.000000
  0
VERTEX
  8
0
 10
0.500000
 20
-0.125000
 40
0.000000
 41
0.000000
 42
0.000000
  0
VERTEX
  8
0
 10
0.416000
 20
-0.375000
 40
0.000000
 41
0.000000
 42
0.000000
  0
VERTEX
  8
0
 10
0.250000
 20
-0.500000
 40
0.000000
 41
0.000000
 42
0.000000
  0
VERTEX
  8
0
 10
-0.250000
 20
-0.500000
 40
0.000000
 41
0.000000
 42
0.000000
  0
VERTEX
  8
0
 10
-0.416000
 20
-0.375000
 40
0.000000
 41
0.000000
 42
0.000000
  0
SEQEND
  0
ENDBLK
  0
BLOCK
  8
0
  2
FIGURE_TRI
 70
0
 10
0.000000
 20
0.000000
  0
POLYLINE
  8
0
 66
1
 70
1
 40
0.000000
 41
0.000000
 39
0.000000
  0
VERTEX
  8
0
 10
-0.500000
 20
-0.500000
 40
0.000000
 41
0.000000
 42
0.000000
  0
VERTEX
  8
0
 10
0.000000
 20
0.500000
 40
0.000000
 41
0.000000
 42
0.000000
  0
VERTEX
  8
0
 10
0.500000
 20
-0.500000
 40
0.000000
 41
0.000000
 42
0.000000
  0
SEQEND
  0
ENDBLK
  0
BLOCK
  8
0
  2
FIGURE_CROSS
 70
0
 10
0.000000
 20
0.000000
  0
POLYLINE
  8
0
 66
1
 70
0
 40
0.000000
 41
0.000000
 39
0.000000
  0
VERTEX
  8
0
 10
-0.500000
 20
0.000000
 40
0.000000
 41
0.000000
 42
0.000000
  0
VERTEX
  8
0
 10
0.500000
 20
0.000000
 40
0.000000
 41
0.000000
 42
0.000000
  0
SEQEND
  0
POLYLINE
  8
0
 66
1
 70
0
 40
0.000000
 41
0.000000
 39
0.000000
  0
VERTEX
  8
0
 10
0.000000
 20
0.500000
 40
0.000000
 41
0.000000
 42
0.000000
  0
VERTEX
  8
0
 10
0.000000
 20
-0.500000
 40
0.000000
 41
0.000000
 42
0.000000
  0
SEQEND
  0
ENDBLK
  0
BLOCK
  8
0
  2
FIGURE_DIAMOND
 70
0
 10
0.000000
 20
0.000000
  0
POLYLINE
  8
0
 66
1
 70
1
 40
0.000000
 41
0.000000
 39
0.000000
  0
VERTEX
  8
0
 10
-0.500000
 20
0.000000
 40
0.000000
 41
0.000000
 42
0.000000
  0
VERTEX
  8
0
 10
0.000000
 20
0.500000
 40
0.000000
 41
0.000000
 42
0.000000
  0
VERTEX
  8
0
 10
0.500000
 20
0.000000
 40
0.000000
 41
0.000000
 42
0.000000
  0
VERTEX
  8
0
 10
0.000000
 20
-0.500000
 40
0.000000
 41
0.000000
 42
0.000000
  0
SEQEND
  0
ENDBLK
  0
ENDSEC
  0
SECTION
  2
ENTITIES
  0
CIRCLE
  8
PIN_BOTTOM
 10
42.672000
 20
30.353000
 40
0.499999
  0
POLYLINE
  8
PIN_BOTTOM
 66
1
 70
1
 40
0.000000
 41
0.000000
 39
0.000000
  0
VERTEX
  8
PIN_BOTTOM
 10
44.441999
 20
30.852999
 40
0.000000
 41
0.000000
 42
0.000000
  0
VERTEX
  8
PIN_BOTTOM
 10
44.441999
 20
29.853001
 40
0.000000
 41
0.000000
 42
0.000000
  0
VERTEX
  8
PIN_BOTTOM
 10
43.442001
 20
29.853001
 40
0.000000
 41
0.000000
 42
0.000000
  0
VERTEX
  8
PIN_BOTTOM
 10
43.442001
 20
30.852999
 40
0.000000
 41
0.000000
 42
0.000000
  0
SEQEND
  0
CIRCLE
  8
PIN_BOTTOM
 10
56.161432
 20
7.569200
 40
0.499999
  0
CIRCLE
  8
PIN_BOTTOM
 10
56.161432
 20
8.839200
 40
0.499999
  0
CIRCLE
  8
PIN_BOTTOM
 10
56.161432
 20
10.109200
 40
0.499999
  0
POLYLINE
  8
PIN_BOTTOM
 66
1
 70
1
 40
0.000000
 41
0.000000
 39
0.000000
  0
VERTEX
  8
PIN_BOTTOM
 10
56.661431
 20
5.799201
 40
0.000000
 41
0.000000
 42
0.000000
  0
VERTEX
  8
PIN_BOTTOM
 10
55.661433
 20
5.799201
 40
0.000000
 41
0.000000
 42
0.000000
  0
VERTEX
  8
PIN_BOTTOM
 10
55.661433
 20
6.799199
 40
0.000000
 41
0.000000
 42
0.000000
  0
VERTEX
  8
PIN_BOTTOM
 10
56.661431
 20
6.799199
 40
0.000000
 41
0.000000
 42
0.000000
  0
SEQEND
  0
CIRCLE
  8
PIN_BOTTOM
 10
44.399200
 20
2.512568
 40
0.499999
  0
CIRCLE
  8
PIN_BOTTOM
 10
45.669200
 20
2.512568
 40
0.499999
  0
CIRCLE
  8
PIN_BOTTOM
 10
46.939200
 20
2.512568
 40
0.499999
  0
POLYLINE
  8
PIN_BOTTOM
 66
1
 70
1
 40
0.000000
 41
0.000000
 39
0.000000
  0
VERTEX
  8
PIN_BOTTOM
 10
42.629074
 20
2.012442
 40
0.000000
 41
0.000000
 42
0.000000
  0
VERTEX
  8
PIN_BOTTOM
 10
42.629074
 20
3.012440
 40
0.000000
 41
0.000000
 42
0.000000
  0
VERTEX
  8
PIN_BOTTOM
 10
43.629072
 20
3.012440
 40
0.000000
 41
0.000000
 42
0.000000
  0
VERTEX
  8
PIN_BOTTOM
 10
43.629072
 20
2.012442
 40
0.000000
 41
0.000000
 42
0.000000
  0
SEQEND
  0
CIRCLE
  8
PIN_BOTTOM
 10
32.969200
 20
2.512568
 40
0.499999
  0
CIRCLE
  8
PIN_BOTTOM
 10
34.239200
 20
2.512568
 40
0.499999
  0
CIRCLE
  8
PIN_BOTTOM
 10
35.509200
 20
2.512568
 40
0.499999
  0
POLYLINE
  8
PIN_BOTTOM
 66
1
 70
1
 40
0.000000
 41
0.000000
 39
0.000000
  0
VERTEX
  8
PIN_BOTTOM
 10
31.199074
 20
2.012442
 40
0.000000
 41
0.000000
 42
0.000000
  0
VERTEX
  8
PIN_BOTTOM
 10
31.199074
 20
3.012440
 40
0.000000
 41
0.000000
 42
0.000000
  0
VERTEX
  8
PIN_BOTTOM
 10
32.199072
 20
3.012440
 40
0.000000
 41
0.000000
 42
0.000000
  0
VERTEX
  8
PIN_BOTTOM
 10
32.199072
 20
2.012442
 40
0.000000
 41
0.000000
 42
0.000000
  0
SEQEND
  0
CIRCLE
  8
PIN_BOTTOM
 10
56.161432
 20
16.713200
 40
0.499999
  0
CIRCLE
  8
PIN_BOTTOM
 10
56.161432
 20
17.983200
 40
0.499999
  0
CIRCLE
  8
PIN_BOTTOM
 10
56.161432
 20
19.253200
 40
0.499999
  0
POLYLINE
  8
PIN_BOTTOM
 66
1
 70
1
 40
0.000000
 41
0.000000
 39
0.000000
  0
VERTEX
  8
PIN_BOTTOM
 10
56.661431
 20
14.943201
 40
0.000000
 41
0.000000
 42
0.000000
  0
VERTEX
  8
PIN_BOTTOM
 10
55.661433
 20
14.943201
 40
0.000000
 41
0.000000
 42
0.000000
  0
VERTEX
  8
PIN_BOTTOM
 10
55.661433
 20
15.943199
 40
0.000000
 41
0.000000
 42
0.000000
  0
VERTEX
  8
PIN_BOTTOM
 10
56.661431
 20
15.943199
 40
0.000000
 41
0.000000
 42
0.000000
  0
SEQEND
  0
CIRCLE
  8
PIN_BOTTOM
 10
22.047200
 20
2.512568
 40
0.499999
  0
CIRCLE
  8
PIN_BOTTOM
 10
23.317200
 20
2.512568
 40
0.499999
  0
CIRCLE
  8
PIN_BOTTOM
 10
24.587200
 20
2.512568
 40
0.499999
  0
POLYLINE
  8
PIN_BOTTOM
 66
1
 70
1
 40
0.000000
 41
0.000000
 39
0.000000
  0
VERTEX
  8
PIN_BOTTOM
 10
20.277074
 20
2.012442
 40
0.000000
 41
0.000000
 42
0.000000
  0
VERTEX
  8
PIN_BOTTOM
 10
20.277074
 20
3.012440
 40
0.000000
 41
0.000000
 42
0.000000
  0
VERTEX
  8
PIN_BOTTOM
 10
21.277072
 20
3.012440
 40
0.000000
 41
0.000000
 42
0.000000
  0
VERTEX
  8
PIN_BOTTOM
 10
21.277072
 20
2.012442
 40
0.000000
 41
0.000000
 42
0.000000
  0
SEQEND
  0
CIRCLE
  8
PIN_BOTTOM
 10
8.955024
 20
31.075884
 40
0.299974
  0
CIRCLE
  8
PIN_BOTTOM
 10
4.955032
 20
31.075884
 40
0.299974
  0
POLYLINE
  8
RE_DISPLAY_TOP
 66
1
 70
1
 40
0.000000
 41
0.000000
 39
0.000000
  0
VERTEX
  8
RE_DISPLAY_TOP
 10
56.511444
 20
19.253200
 40
0.000000
 41
0.000000
 42
1.000000
  0
VERTEX
  8
RE_DISPLAY_TOP
 10
55.811420
 20
19.253200
 40
0.000000
 41
0.000000
 42
1.000000
  0
SEQEND
  0
POLYLINE
  8
RE_DISPLAY_TOP
 66
1
 70
1
 40
0.000000
 41
0.000000
 39
0.000000
  0
VERTEX
  8
RE_DISPLAY_TOP
 10
56.511444
 20
16.713200
 40
0.000000
 41
0.000000
 42
1.000000
  0
VERTEX
  8
RE_DISPLAY_TOP
 10
55.811420
 20
16.713200
 40
0.000000
 41
0.000000
 42
1.000000
  0
SEQEND
  0
POLYLINE
  8
RE_DISPLAY_TOP
 66
1
 70
1
 40
0.000000
 41
0.000000
 39
0.000000
  0
VERTEX
  8
RE_DISPLAY_TOP
 10
56.511444
 20
17.983200
 40
0.000000
 41
0.000000
 42
1.000000
  0
VERTEX
  8
RE_DISPLAY_TOP
 10
55.811420
 20
17.983200
 40
0.000000
 41
0.000000
 42
1.000000
  0
SEQEND
  0
POLYLINE
  8
RE_DISPLAY_TOP
 66
1
 70
1
 40
0.000000
 41
0.000000
 39
0.000000
  0
VERTEX
  8
RE_DISPLAY_TOP
 10
56.511444
 20
15.443200
 40
0.000000
 41
0.000000
 42
1.000000
  0
VERTEX
  8
RE_DISPLAY_TOP
 10
55.811420
 20
15.443200
 40
0.000000
 41
0.000000
 42
1.000000
  0
SEQEND
  0
POLYLINE
  8
RE_DISPLAY_TOP
 66
1
 70
1
 40
0.000000
 41
0.000000
 39
0.000000
  0
VERTEX
  8
RE_DISPLAY_TOP
 10
56.511444
 20
8.839200
 40
0.000000
 41
0.000000
 42
1.000000
  0
VERTEX
  8
RE_DISPLAY_TOP
 10
55.811420
 20
8.839200
 40
0.000000
 41
0.000000
 42
1.000000
  0
SEQEND
  0
POLYLINE
  8
RE_DISPLAY_TOP
 66
1
 70
1
 40
0.000000
 41
0.000000
 39
0.000000
  0
VERTEX
  8
RE_DISPLAY_TOP
 10
56.511444
 20
10.109200
 40
0.000000
 41
0.000000
 42
1.000000
  0
VERTEX
  8
RE_DISPLAY_TOP
 10
55.811420
 20
10.109200
 40
0.000000
 41
0.000000
 42
1.000000
  0
SEQEND
  0
POLYLINE
  8
RE_DISPLAY_TOP
 66
1
 70
1
 40
0.000000
 41
0.000000
 39
0.000000
  0
VERTEX
  8
RE_DISPLAY_TOP
 10
56.511444
 20
7.569200
 40
0.000000
 41
0.000000
 42
1.000000
  0
VERTEX
  8
RE_DISPLAY_TOP
 10
55.811420
 20
7.569200
 40
0.000000
 41
0.000000
 42
1.000000
  0
SEQEND
  0
POLYLINE
  8
RE_DISPLAY_TOP
 66
1
 70
1
 40
0.000000
 41
0.000000
 39
0.000000
  0
VERTEX
  8
RE_DISPLAY_TOP
 10
56.511444
 20
6.299200
 40
0.000000
 41
0.000000
 42
1.000000
  0
VERTEX
  8
RE_DISPLAY_TOP
 10
55.811420
 20
6.299200
 40
0.000000
 41
0.000000
 42
1.000000
  0
SEQEND
  0
POLYLINE
  8
RE_DISPLAY_TOP
 66
1
 70
1
 40
0.000000
 41
0.000000
 39
0.000000
  0
VERTEX
  8
RE_DISPLAY_TOP
 10
43.022012
 20
30.353000
 40
0.000000
 41
0.000000
 42
1.000000
  0
VERTEX
  8
RE_DISPLAY_TOP
 10
42.321988
 20
30.353000
 40
0.000000
 41
0.000000
 42
1.000000
  0
SEQEND
  0
POLYLINE
  8
RE_DISPLAY_TOP
 66
1
 70
1
 40
0.000000
 41
0.000000
 39
0.000000
  0
VERTEX
  8
RE_DISPLAY_TOP
 10
44.292012
 20
30.353000
 40
0.000000
 41
0.000000
 42
1.000000
  0
VERTEX
  8
RE_DISPLAY_TOP
 10
43.591988
 20
30.353000
 40
0.000000
 41
0.000000
 42
1.000000
  0
SEQEND
  0
POLYLINE
  8
RE_DISPLAY_TOP
 66
1
 70
1
 40
0.000000
 41
0.000000
 39
0.000000
  0
VERTEX
  8
RE_DISPLAY_TOP
 10
44.749212
 20
2.512568
 40
0.000000
 41
0.000000
 42
1.000000
  0
VERTEX
  8
RE_DISPLAY_TOP
 10
44.049188
 20
2.512568
 40
0.000000
 41
0.000000
 42
1.000000
  0
SEQEND
  0
POLYLINE
  8
RE_DISPLAY_TOP
 66
1
 70
1
 40
0.000000
 41
0.000000
 39
0.000000
  0
VERTEX
  8
RE_DISPLAY_TOP
 10
46.019212
 20
2.512568
 40
0.000000
 41
0.000000
 42
1.000000
  0
VERTEX
  8
RE_DISPLAY_TOP
 10
45.319188
 20
2.512568
 40
0.000000
 41
0.000000
 42
1.000000
  0
SEQEND
  0
POLYLINE
  8
RE_DISPLAY_TOP
 66
1
 70
1
 40
0.000000
 41
0.000000
 39
0.000000
  0
VERTEX
  8
RE_DISPLAY_TOP
 10
47.289212
 20
2.512568
 40
0.000000
 41
0.000000
 42
1.000000
  0
VERTEX
  8
RE_DISPLAY_TOP
 10
46.589188
 20
2.512568
 40
0.000000
 41
0.000000
 42
1.000000
  0
SEQEND
  0
POLYLINE
  8
RE_DISPLAY_TOP
 66
1
 70
1
 40
0.000000
 41
0.000000
 39
0.000000
  0
VERTEX
  8
RE_DISPLAY_TOP
 10
43.479212
 20
2.512568
 40
0.000000
 41
0.000000
 42
1.000000
  0
VERTEX
  8
RE_DISPLAY_TOP
 10
42.779188
 20
2.512568
 40
0.000000
 41
0.000000
 42
1.000000
  0
SEQEND
  0
POLYLINE
  8
RE_DISPLAY_TOP
 66
1
 70
1
 40
0.000000
 41
0.000000
 39
0.000000
  0
VERTEX
  8
RE_DISPLAY_TOP
 10
33.319212
 20
2.512568
 40
0.000000
 41
0.000000
 42
1.000000
  0
VERTEX
  8
RE_DISPLAY_TOP
 10
32.619188
 20
2.512568
 40
0.000000
 41
0.000000
 42
1.000000
  0
SEQEND
  0
POLYLINE
  8
RE_DISPLAY_TOP
 66
1
 70
1
 40
0.000000
 41
0.000000
 39
0.000000
  0
VERTEX
  8
RE_DISPLAY_TOP
 10
34.589212
 20
2.512568
 40
0.000000
 41
0.000000
 42
1.000000
  0
VERTEX
  8
RE_DISPLAY_TOP
 10
33.889188
 20
2.512568
 40
0.000000
 41
0.000000
 42
1.000000
  0
SEQEND
  0
POLYLINE
  8
RE_DISPLAY_TOP
 66
1
 70
1
 40
0.000000
 41
0.000000
 39
0.000000
  0
VERTEX
  8
RE_DISPLAY_TOP
 10
35.859212
 20
2.512568
 40
0.000000
 41
0.000000
 42
1.000000
  0
VERTEX
  8
RE_DISPLAY_TOP
 10
35.159188
 20
2.512568
 40
0.000000
 41
0.000000
 42
1.000000
  0
SEQEND
  0
POLYLINE
  8
RE_DISPLAY_TOP
 66
1
 70
1
 40
0.000000
 41
0.000000
 39
0.000000
  0
VERTEX
  8
RE_DISPLAY_TOP
 10
32.049212
 20
2.512568
 40
0.000000
 41
0.000000
 42
1.000000
  0
VERTEX
  8
RE_DISPLAY_TOP
 10
31.349188
 20
2.512568
 40
0.000000
 41
0.000000
 42
1.000000
  0
SEQEND
  0
POLYLINE
  8
RE_DISPLAY_TOP
 66
1
 70
1
 40
0.000000
 41
0.000000
 39
0.000000
  0
VERTEX
  8
RE_DISPLAY_TOP
 10
23.667212
 20
2.512568
 40
0.000000
 41
0.000000
 42
1.000000
  0
VERTEX
  8
RE_DISPLAY_TOP
 10
22.967188
 20
2.512568
 40
0.000000
 41
0.000000
 42
1.000000
  0
SEQEND
  0
POLYLINE
  8
RE_DISPLAY_TOP
 66
1
 70
1
 40
0.000000
 41
0.000000
 39
0.000000
  0
VERTEX
  8
RE_DISPLAY_TOP
 10
24.937212
 20
2.512568
 40
0.000000
 41
0.000000
 42
1.000000
  0
VERTEX
  8
RE_DISPLAY_TOP
 10
24.237188
 20
2.512568
 40
0.000000
 41
0.000000
 42
1.000000
  0
SEQEND
  0
POLYLINE
  8
RE_DISPLAY_TOP
 66
1
 70
1
 40
0.000000
 41
0.000000
 39
0.000000
  0
VERTEX
  8
RE_DISPLAY_TOP
 10
22.397212
 20
2.512568
 40
0.000000
 41
0.000000
 42
1.000000
  0
VERTEX
  8
RE_DISPLAY_TOP
 10
21.697188
 20
2.512568
 40
0.000000
 41
0.000000
 42
1.000000
  0
SEQEND
  0
POLYLINE
  8
RE_DISPLAY_TOP
 66
1
 70
1
 40
0.000000
 41
0.000000
 39
0.000000
  0
VERTEX
  8
RE_DISPLAY_TOP
 10
21.127212
 20
2.512568
 40
0.000000
 41
0.000000
 42
1.000000
  0
VERTEX
  8
RE_DISPLAY_TOP
 10
20.427188
 20
2.512568
 40
0.000000
 41
0.000000
 42
1.000000
  0
SEQEND
  0
POLYLINE
  8
RE_DISPLAY_TOP
 66
1
 70
1
 40
0.000000
 41
0.000000
 39
0.000000
  0
VERTEX
  8
RE_DISPLAY_TOP
 10
9.254998
 20
31.075884
 40
0.000000
 41
0.000000
 42
1.000000
  0
VERTEX
  8
RE_DISPLAY_TOP
 10
8.655050
 20
31.075884
 40
0.000000
 41
0.000000
 42
1.000000
  0
SEQEND
  0
POLYLINE
  8
RE_DISPLAY_TOP
 66
1
 70
1
 40
0.000000
 41
0.000000
 39
0.000000
  0
VERTEX
  8
RE_DISPLAY_TOP
 10
5.255006
 20
31.075884
 40
0.000000
 41
0.000000
 42
1.000000
  0
VERTEX
  8
RE_DISPLAY_TOP
 10
4.655058
 20
31.075884
 40
0.000000
 41
0.000000
 42
1.000000
  0
SEQEND
  0
POLYLINE
  8
BG_OUTLINE
 66
1
 70
1
 40
0.000000
 41
0.000000
 39
0.000000
  0
VERTEX
  8
BG_OUTLINE
 10
0.000000
 20
0.000000
 40
0.000000
 41
0.000000
 42
0.000000
  0
VERTEX
  8
BG_OUTLINE
 10
0.000000
 20
35.560000
 40
0.000000
 41
0.000000
 42
0.000000
  0
VERTEX
  8
BG_OUTLINE
 10
58.420000
 20
35.560000
 40
0.000000
 41
0.000000
 42
0.000000
  0
VERTEX
  8
BG_OUTLINE
 10
58.420000
 20
0.000000
 40
0.000000
 41
0.000000
 42
0.000000
  0
SEQEND
  0
ENDSEC
  0
EOF
