G04 ================== begin FILE IDENTIFICATION RECORD ==================*
G04 Layout Name:  SHT85-Demo.brd*
G04 Film Name:    01_TOP*
G04 File Format:  Gerber RS274X*
G04 File Origin:  Cadence Allegro 16.6-2015-S108*
G04 Origin Date:  Mon Oct 14 19:41:10 2019*
G04 *
G04 Layer:  BOARD GEOMETRY/OUTLINE*
G04 Layer:  ETCH/TOP*
G04 Layer:  PIN/TOP*
G04 Layer:  VIA CLASS/TOP*
G04 *
G04 Offset:    (0.00 0.00)*
G04 Mirror:    No*
G04 Mode:      Positive*
G04 Rotation:  0*
G04 FullContactRelief:  No*
G04 UndefLineWidth:     6.00*
G04 ================== end FILE IDENTIFICATION RECORD ====================*
%FSLAX25Y25*MOIN*%
%IR0*IPPOS*OFA0.00000B0.00000*MIA0B0*SFA1.00000B1.00000*%
%ADD10C,.024*%
%ADD14C,.02362*%
%ADD21R,.1811X.04724*%
%ADD23C,.03937*%
%ADD30R,.08268X.11811*%
%ADD12R,.0748X.0748*%
%ADD13R,.08465X.1378*%
%ADD11R,.1378X.03937*%
%ADD22R,.03937X.03937*%
%ADD24R,.031X.036*%
%ADD17R,.032X.035*%
%ADD25R,.036X.031*%
%ADD19R,.035X.032*%
%ADD28O,.01063X.03937*%
%ADD27O,.03937X.01063*%
%ADD29R,.03661X.0374*%
%ADD18R,.05118X.07087*%
%ADD26R,.05118X.06693*%
%ADD16R,.08661X.04724*%
%ADD31R,.02756X.07087*%
%ADD20O,.07874X.02559*%
%ADD15R,.01575X.07874*%
%ADD32C,.01*%
%ADD33C,.02*%
%ADD34C,.03*%
%ADD35C,.04*%
%ADD36C,.015*%
%ADD37C,.006*%
G75*
%LPD*%
G75*
G36*
G01X2000Y2000D02*
Y138000D01*
X5892D01*
Y125069D01*
X14530D01*
G02X17027Y122457I0J-2500D01*
G03X19521Y119863I2481J-111D01*
G02X22034Y117363I13J-2500D01*
G01Y113061D01*
X24198D01*
Y110500D01*
G03X28750Y108312I2802J0D01*
G03X29635Y107836I1748J2189D01*
G01X30498Y107555D01*
Y81671D01*
X31998Y80171D01*
Y68918D01*
X31873D01*
Y60002D01*
X26329D01*
X21829Y64502D01*
X7498D01*
Y46498D01*
X21829D01*
X26329Y50998D01*
X41671D01*
X42498Y50171D01*
Y37329D01*
X31639Y26470D01*
X30584D01*
Y25415D01*
X30498Y25329D01*
Y18498D01*
X48329D01*
X48361Y18530D01*
X48368D01*
Y18537D01*
X51329Y21498D01*
X57829D01*
X59502Y23171D01*
Y30329D01*
X56502Y33329D01*
Y35998D01*
X61829D01*
X64002Y38171D01*
Y49329D01*
X63956Y49374D01*
Y50045D01*
X63286D01*
X61502Y51829D01*
Y54671D01*
X64612Y57781D01*
X64693Y57840D01*
G03X65433Y58580I-1920J2660D01*
G01X65491Y58661D01*
X65525Y58695D01*
X65654Y58931D01*
G03Y62069I-2881J1569D01*
G01X65502Y62349D01*
Y63651D01*
X65654Y63931D01*
G03X65509Y67310I-2882J1569D01*
G02Y68690I1042J690D01*
G03Y72310I-2736J1810D01*
G02Y73690I1042J690D01*
G03Y77310I-2736J1810D01*
G02Y78690I1042J690D01*
G03Y82310I-2736J1810D01*
G02Y83690I1042J690D01*
G03Y87310I-2736J1810D01*
G02Y88690I1042J690D01*
G03Y92310I-2736J1810D01*
G02Y93690I1042J690D01*
G03X62772Y98781I-2737J1810D01*
G01X57458D01*
G03X54721Y93690I0J-3281D01*
G02Y92310I-1042J-690D01*
G03Y88690I2736J-1810D01*
G02Y87310I-1042J-690D01*
G03Y83690I2736J-1810D01*
G02Y82310I-1042J-690D01*
G03Y78690I2736J-1810D01*
G02Y77310I-1042J-690D01*
G03Y73690I2736J-1810D01*
G02Y72310I-1042J-690D01*
G03Y68690I2736J-1810D01*
G02Y67310I-1042J-690D01*
G03X54312Y64567I2737J-1810D01*
G01X54523Y63854D01*
X50998Y60329D01*
Y59850D01*
G02X48865Y58966I-1250J0D01*
G01X47829Y60002D01*
X46850D01*
G02X45966Y62135I0J1250D01*
G01X48502Y64671D01*
Y116636D01*
X68498D01*
Y109602D01*
X67748D01*
Y102398D01*
X70357D01*
X70498Y102257D01*
Y93257D01*
X73694Y90061D01*
G02X73847Y86693I-1767J-1768D01*
G03X73989Y82950I2153J-1793D01*
G03X76000Y78198I2011J-1950D01*
G01X77299D01*
Y76743D01*
X77234Y76549D01*
G03X77606Y73690I3109J-1049D01*
G02Y72310I-1042J-690D01*
G03Y68690I2736J-1810D01*
G02Y67310I-1042J-690D01*
G03X80342Y62219I2737J-1810D01*
G01X85658D01*
G03X87126Y62566I-1J3281D01*
G01X87391Y62698D01*
X88436D01*
G02X89320Y60565I0J-1250D01*
G01X85498Y56743D01*
Y36159D01*
G02X82166Y33802I-2500J0D01*
G03X77537Y31017I-1166J-3302D01*
G01X77448Y30425D01*
Y16048D01*
X77830D01*
Y5922D01*
X85770D01*
Y6058D01*
G03X89419Y6909I1030J3834D01*
G02X90705Y7131I824J-940D01*
G03X92895I1095J2761D01*
G02X94181Y6909I462J-1162D01*
G03X99802Y12490I2619J2984D01*
G01Y13057D01*
X101002Y14257D01*
Y16048D01*
X101552D01*
Y30425D01*
X101463Y31017D01*
G03X96688Y33746I-3463J-517D01*
G02X93252Y36064I-936J2318D01*
G01Y53507D01*
X100943Y61198D01*
X109998D01*
Y58829D01*
X108714Y57545D01*
X107544D01*
Y56374D01*
X107498Y56329D01*
Y46498D01*
X107544D01*
Y46455D01*
X116664D01*
Y46498D01*
X118329D01*
X120502Y48671D01*
Y57672D01*
X123465D01*
G03X123580Y57674I5J3001D01*
G02X126174Y55080I96J-2498D01*
G03X126172Y54965I2999J-110D01*
G01Y36492D01*
G02X123808Y33996I-2500J0D01*
G03X120537Y31017I192J-3496D01*
G01X120448Y30425D01*
Y16048D01*
X120830D01*
Y5922D01*
X128770D01*
Y6058D01*
G03X132419Y6909I1030J3834D01*
G02X133705Y7131I824J-940D01*
G03X135895I1095J2761D01*
G02X137181Y6909I462J-1162D01*
G03X142802Y12490I2619J2984D01*
G01Y13057D01*
X144002Y14257D01*
Y16048D01*
X144552D01*
Y28702D01*
X144502D01*
Y30500D01*
G03X144497Y30683I-3502J-4D01*
G01X144495Y30716D01*
Y31998D01*
X165448D01*
Y16048D01*
X165830D01*
Y5922D01*
X173770D01*
Y6058D01*
G03X177419Y6909I1030J3834D01*
G02X178705Y7131I824J-940D01*
G03X180895I1095J2761D01*
G02X182181Y6909I462J-1162D01*
G03X187802Y12490I2619J2984D01*
G01Y13057D01*
X189002Y14257D01*
Y16048D01*
X189552D01*
Y30425D01*
X189463Y31017D01*
G03X189458Y31052I-3469J-478D01*
G01X189442Y31149D01*
Y32498D01*
X196549D01*
X200974Y28073D01*
X198201Y25299D01*
G03X202241Y20254I2299J-2299D01*
G01X202547Y20448D01*
X214952D01*
Y20830D01*
X225078D01*
Y29884D01*
X225074Y29967D01*
G03X224091Y32419I-3966J-167D01*
G02X223869Y33705I940J824D01*
G03Y35895I-2761J1095D01*
G02X224091Y37181I1162J462D01*
G03X219218Y43291I-2984J2619D01*
G01X218398Y42847D01*
X217243Y44002D01*
X214952D01*
Y44552D01*
X200743D01*
X200114Y44388D01*
G03X197666Y42070I886J-3388D01*
G01X197387Y41202D01*
X188543D01*
X176243Y53502D01*
X168243D01*
X166250Y55495D01*
G02X167134Y57628I884J883D01*
G01X175942D01*
Y65372D01*
X175752D01*
Y71588D01*
X175500D01*
Y74198D01*
X177794D01*
X183494Y68498D01*
X201257D01*
X201498Y68257D01*
Y63552D01*
X200743D01*
X200114Y63388D01*
G03Y56612I886J-3388D01*
G01X200743Y56448D01*
X214952D01*
Y56830D01*
X225078D01*
Y65884D01*
X225074Y65967D01*
G03X224091Y68419I-3966J-167D01*
G02X223869Y69705I940J824D01*
G03Y71895I-2761J1095D01*
G02X224091Y73181I1162J462D01*
G03X218510Y78802I-2984J2619D01*
G01X217943D01*
X216743Y80002D01*
X214952D01*
Y80552D01*
X200743D01*
X200114Y80388D01*
G03X197622Y77922I886J-3388D01*
G01X197371Y77002D01*
X192278D01*
G02X189789Y79737I0J2500D01*
G03X189802Y80000I-2789J270D01*
G01Y83340D01*
X196924Y90462D01*
G02X199058Y89578I884J-884D01*
G01Y88128D01*
X206722D01*
Y95948D01*
X212952D01*
Y96122D01*
X214007Y96288D01*
G03Y102712I-507J3212D01*
G01X212952Y102878D01*
Y103052D01*
X208549D01*
G02X206782Y107320I0J2500D01*
G01X207697Y108235D01*
X208486Y107874D01*
G03X213442Y111059I1455J3185D01*
G01Y112385D01*
G02X214609Y113632I1250J0D01*
G03X217715Y118175I-235J3494D01*
G02X220100Y121424I2385J749D01*
G01X228000D01*
Y2000D01*
X2000D01*
G37*
G36*
G01X32500Y20500D02*
Y24500D01*
X44500Y36500D01*
Y51000D01*
X42500Y53000D01*
X25500D01*
X21000Y48500D01*
X9500D01*
Y62500D01*
X21000D01*
X25500Y58000D01*
X47000D01*
X51498Y53502D01*
Y38878D01*
X53878Y36498D01*
X54002D01*
X54500Y36000D01*
Y32500D01*
X57500Y29500D01*
Y24000D01*
X57000Y23500D01*
X50500D01*
X49751Y22752D01*
X49398D01*
Y22398D01*
X47500Y20500D01*
X32500D01*
G37*
G36*
G01X34000Y62000D02*
Y81000D01*
X32500Y82500D01*
Y109361D01*
G03X32802Y110500I-2000J1140D01*
G01Y112953D01*
X32500Y113255D01*
Y122500D01*
X32341Y122659D01*
G02X32483Y123000I142J141D01*
G01X32887D01*
G02X33284Y122557I-1J-400D01*
G03X37228I1972J-211D01*
G02X37625Y123000I398J43D01*
G01X42000D01*
X46500Y118500D01*
Y65500D01*
X43000Y62000D01*
X34000D01*
G37*
G36*
G01X54500Y38000D02*
X53000Y39500D01*
Y59500D01*
X55500Y62000D01*
X63500D01*
Y59500D01*
X59500Y55500D01*
Y51000D01*
X60248Y50252D01*
Y49898D01*
X60602D01*
X62000Y48500D01*
Y39000D01*
X61000Y38000D01*
X54500D01*
G37*
G36*
G01X141745Y103000D02*
X138643Y106102D01*
X137752D01*
Y110602D01*
X134544D01*
Y115299D01*
X135881Y116636D01*
X159490D01*
Y125364D01*
X139000D01*
Y125500D01*
X68500D01*
Y125364D01*
X48872D01*
Y138000D01*
X178026D01*
Y123470D01*
X169030D01*
Y123334D01*
G03X164767Y117197I-1030J-3834D01*
G01X164998Y116871D01*
Y111102D01*
X164248D01*
Y105602D01*
X149594D01*
X149494Y105502D01*
X148757D01*
X146255Y103000D01*
X141745D01*
G37*
G36*
G01X96359Y67603D02*
X93756Y70206D01*
X94395Y71748D01*
X94602D01*
Y79252D01*
X88939D01*
X88938Y80501D01*
G03X88394Y82310I-3281J0D01*
G02Y83690I1042J690D01*
G03Y87310I-2736J1810D01*
G02Y88690I1042J690D01*
G03Y92310I-2736J1810D01*
G02Y93690I1042J690D01*
G03X85658Y98781I-2737J1810D01*
G01X80342D01*
G03X79915Y98753I1J-3281D01*
G01X79833Y98742D01*
X78502D01*
Y101757D01*
X79143Y102398D01*
X82252D01*
Y109602D01*
X81502D01*
Y116257D01*
X81881Y116636D01*
X97940D01*
Y103491D01*
X99698D01*
Y99840D01*
X107340Y92198D01*
X109898D01*
Y91248D01*
X115948D01*
Y84907D01*
X116190Y84207D01*
G03X118591Y81969I3309J1144D01*
G02X119509Y80628I-325J-1207D01*
G03X119694Y79374I2519J-269D01*
G03Y77406I2334J-984D01*
G03Y75437I2334J-984D01*
G03Y73468I2334J-984D01*
G03X119555Y73031I2334J-983D01*
G01X119338Y72052D01*
X109848D01*
Y68802D01*
X97557D01*
X96359Y67603D01*
G37*
G36*
G01X107060Y103491D02*
Y116636D01*
X125619D01*
X126898Y115357D01*
Y110602D01*
X123748D01*
Y103360D01*
X119340Y98952D01*
X115948D01*
Y98752D01*
X108710D01*
X106105Y101357D01*
G02X106988Y103491I884J884D01*
G01X107060D01*
G37*
G36*
G01X118500Y49500D02*
X117500Y48500D01*
X109500D01*
Y55500D01*
X112000Y58000D01*
Y61698D01*
X116500D01*
Y58000D01*
X118500Y56000D01*
Y49500D01*
G37*
G36*
G01X150602Y40002D02*
X144243D01*
X138080Y46164D01*
Y49758D01*
G02X139227Y51004I1250J0D01*
G03X140000Y51194I-211J2524D01*
G03X141968I984J2334D01*
G03X143937I985J2334D01*
G03X145906I985J2334D01*
G03X146512Y51023I986J2334D01*
G01X147576Y50863D01*
Y49653D01*
X149748Y47480D01*
Y42898D01*
X150123D01*
X150399Y42024D01*
G03X150504Y41737I3102J972D01*
G01X150602Y41504D01*
Y40002D01*
G37*
G36*
G01X130158Y58736D02*
G03X129531Y58910I-985J-2334D01*
G02X127410Y61031I353J2474D01*
G03X127065Y61991I-2508J-359D01*
G02Y63292I1067J650D01*
G03X127236Y65594I-2163J1318D01*
G03Y67563I-2334J984D01*
G03Y69532I-2334J984D01*
G03Y71500I-2334J984D01*
G03Y73468I-2334J984D01*
G03Y75437I-2334J984D01*
G03Y77406I-2334J985D01*
G03Y79374I-2334J984D01*
G03Y81342I-2334J984D01*
G03X127410Y81969I-2334J985D01*
G02X129531Y84090I2474J-353D01*
G03X130158Y84264I-358J2508D01*
G03X132126I984J2334D01*
G03X134094I984J2334D01*
G03X136397Y84435I985J2334D01*
G02X137698I650J-1067D01*
G03X140000Y84264I1318J2163D01*
G03X141968I984J2334D01*
G03X143937I985J2334D01*
G03X145906I985J2334D01*
G03X147874I984J2334D01*
G03X149842I984J2334D01*
G03X150469Y84090I985J2334D01*
G02X152590Y81969I-353J-2474D01*
G03X152935Y81009I2508J359D01*
G02Y79708I-1067J-650D01*
G03X152764Y77406I2163J-1318D01*
G03Y75437I2334J-984D01*
G03Y73468I2334J-984D01*
G03Y71500I2334J-984D01*
G03Y69532I2334J-984D01*
G03Y67563I2334J-984D01*
G03X152565Y66629I2334J-985D01*
G02X151589Y65434I-1250J24D01*
G03X150366Y64817I612J-2734D01*
G02X147206Y64722I-1638J1888D01*
G03X143990Y64860I-1706J-2222D01*
G01X143144Y64318D01*
X138481Y68981D01*
G03X134170Y65444I-1981J-1981D01*
G02Y64056I-1039J-694D01*
G03X134201Y60899I2330J-1556D01*
G02X133154Y58935I-1026J-714D01*
G03X132126Y58736I-43J-2533D01*
G03X130158I-984J-2334D01*
G37*
G36*
G01X169252Y81780D02*
Y85602D01*
X168888D01*
X168693Y86615D01*
G03X162307I-3193J-615D01*
G01X162112Y85602D01*
X161748D01*
Y85329D01*
G03X159431Y85398I-1249J-3002D01*
G01X159232Y85328D01*
X156535D01*
G03X155187Y85009I-1J-3001D01*
G02X153509Y86687I-561J1117D01*
G03X153666Y87060I-2682J1348D01*
G02X156017Y88749I2365J-811D01*
G03X159252Y92000I-16J3251D01*
G01Y94347D01*
X157734Y95865D01*
G02X158618Y97998I884J883D01*
G01X170343D01*
X176243Y103898D01*
X176752D01*
Y111102D01*
X176002D01*
Y115530D01*
X176970D01*
Y121424D01*
X190296D01*
Y138000D01*
X214836D01*
Y122671D01*
X208415D01*
Y122672D01*
X196726D01*
Y111580D01*
X197304D01*
Y109766D01*
X193698Y106160D01*
Y99160D01*
X180298Y85760D01*
Y81802D01*
X174211D01*
X169252Y81780D01*
G37*
G54D10*
X3500Y12000D03*
Y7000D03*
X6500Y3500D03*
X3500Y32000D03*
Y27000D03*
Y22000D03*
Y17000D03*
Y52000D03*
Y47000D03*
Y42000D03*
Y37000D03*
Y67000D03*
Y62000D03*
Y57000D03*
Y87000D03*
Y82000D03*
Y77000D03*
Y72000D03*
Y107000D03*
Y102000D03*
Y97000D03*
Y92000D03*
Y127000D03*
Y122000D03*
Y117000D03*
Y112000D03*
X3701Y136299D03*
X3500Y132000D03*
X12500Y12000D03*
X17500D03*
X22500D03*
X27500D03*
X11500Y3500D03*
X16500D03*
X21500D03*
X26500D03*
X27500Y17000D03*
Y22000D03*
Y27000D03*
Y32000D03*
Y37000D03*
Y42000D03*
X22500D03*
X17500D03*
X12500D03*
X13000Y71500D03*
Y76500D03*
Y81500D03*
Y102000D03*
Y107000D03*
X27000Y110500D03*
X13000Y112000D03*
X47500Y12000D03*
X42500D03*
X37500D03*
X32500D03*
X31500Y3500D03*
X36500D03*
X41500D03*
X46500D03*
X49000Y62000D03*
X40000Y69000D03*
X35500D03*
X30500Y110500D03*
X67500Y12000D03*
X62500D03*
X57500D03*
X52500D03*
X51500Y3500D03*
X56500D03*
X61500D03*
X66500D03*
X55800Y25200D03*
Y28500D03*
X52500D03*
X60150Y39200D03*
X57000D03*
X68500Y62500D03*
Y67500D03*
X51500Y71500D03*
Y66500D03*
X67000Y53000D03*
X68500Y72500D03*
Y77500D03*
X51500Y81500D03*
Y76500D03*
X68500Y95000D03*
X66000Y101000D03*
X61000D03*
X56000D03*
Y106000D03*
Y111000D03*
X51000D03*
Y106000D03*
Y101000D03*
Y96000D03*
X62000Y106000D03*
X65500Y136500D03*
X60500D03*
X55500D03*
X50500D03*
X71500Y3500D03*
X76500D03*
X81500D03*
X86500D03*
Y23000D03*
X81000Y30500D03*
X73500Y33500D03*
X76500Y38000D03*
X81500D03*
X69500Y50000D03*
X70500Y57500D03*
X75000Y56500D03*
X80000Y52500D03*
X73500Y67500D03*
Y62500D03*
X77000Y60500D03*
X72000Y53000D03*
X73500Y72500D03*
X76000Y81000D03*
Y84900D03*
X88000Y106000D03*
X84500Y113000D03*
X75500Y129500D03*
X80500D03*
X70500D03*
X85500Y136500D03*
X80500D03*
X75500D03*
X70500D03*
X91500Y3500D03*
X96500D03*
X101500D03*
X106500D03*
Y15000D03*
X98000Y30500D03*
X107000Y38000D03*
X102000D03*
X97000D03*
X108000Y58000D03*
X99896D03*
X102500Y70502D03*
X94500Y65500D03*
X89500D03*
X102500Y87000D03*
X91000Y85500D03*
X102500Y82000D03*
X107161Y76161D03*
X97500D03*
X102500Y92000D03*
X89500Y113000D03*
X94500D03*
X105500Y136500D03*
X100500D03*
X95500D03*
X90500D03*
X111500Y3500D03*
X116500D03*
X121500D03*
X126500D03*
X116500Y15000D03*
X111500D03*
X124000Y30500D03*
X122000Y43000D03*
Y38000D03*
X117000D03*
X112000D03*
X116500Y50850D03*
X128000Y62642D03*
X116500Y54000D03*
X113500Y85500D03*
X119500Y85350D03*
X128018Y98782D03*
X118000Y107000D03*
X111500Y113000D03*
X116500D03*
X121500D03*
X125500Y129500D03*
Y136500D03*
X120500D03*
X115500D03*
X110500D03*
X131500Y3500D03*
X136500D03*
X141500D03*
X146500D03*
X129500Y23000D03*
X141000Y30500D03*
X143000Y44500D03*
X140500Y47000D03*
X145613Y42113D03*
X147047Y68500D03*
X142047D03*
X145500Y62500D03*
X136500D03*
Y67000D03*
X142047Y73500D03*
X147047D03*
Y78500D03*
X142047D03*
X132047D03*
Y73500D03*
X137047D03*
Y78500D03*
Y83500D03*
X143500Y107000D03*
X134000Y92200D03*
X146000Y113000D03*
X141000D03*
X135500Y129500D03*
X130500D03*
X145500Y136500D03*
X140500D03*
X135500D03*
X130500D03*
X151500Y3500D03*
X156500D03*
X161500D03*
X166500D03*
X161500Y15500D03*
X156500D03*
X151500D03*
X153500Y43000D03*
X148858Y59500D03*
X152201Y62700D03*
X152000Y80358D03*
X165500Y86000D03*
X158500Y107500D03*
X163000Y95500D03*
X156000Y92000D03*
Y113000D03*
X151000D03*
X165500Y136500D03*
X160500D03*
X155500D03*
X150500D03*
X171500Y3500D03*
X176500D03*
X181500D03*
X186500D03*
X174500Y23000D03*
X169000Y30500D03*
X186000D03*
X177500Y68000D03*
Y63000D03*
Y58000D03*
X168000Y56000D03*
X171500Y91500D03*
X177500Y72000D03*
X187000Y80000D03*
X183100D03*
X182500Y103000D03*
Y98000D03*
Y93000D03*
Y107500D03*
X185500Y113000D03*
X180500D03*
X175500Y136500D03*
X170500D03*
X191500Y3500D03*
X196500D03*
X201500D03*
X206500D03*
Y15000D03*
X201500D03*
X196500D03*
X200500Y23000D03*
X193500Y48500D03*
X201000Y41000D03*
X193500Y63500D03*
Y58500D03*
Y53500D03*
X201000Y60000D03*
Y77000D03*
X195185Y111059D03*
X190500Y113000D03*
X206000Y125500D03*
X201000D03*
X196000D03*
X205500Y131000D03*
X200500D03*
X195500D03*
X190752Y117126D03*
X205500Y136500D03*
X200500D03*
X195500D03*
X211500Y3500D03*
X216500D03*
X221500D03*
X225500Y6500D03*
Y11500D03*
Y21500D03*
Y26500D03*
Y31500D03*
Y16500D03*
X208500Y29500D03*
X225500Y36500D03*
Y41500D03*
Y46500D03*
Y51500D03*
Y56500D03*
Y61500D03*
Y66500D03*
Y71500D03*
X208000Y65500D03*
X220000Y82000D03*
Y87000D03*
X209000Y82000D03*
Y87000D03*
X225500Y76500D03*
Y81500D03*
Y86500D03*
Y91500D03*
X219500Y94500D03*
Y99500D03*
X225500Y96500D03*
Y101500D03*
Y106500D03*
X213500Y92000D03*
Y99500D03*
X209941Y111059D03*
X211000Y125500D03*
X210500Y131000D03*
X225500Y111500D03*
Y116500D03*
X214374Y117126D03*
X210500Y136500D03*
G54D20*
X60115Y70500D03*
Y65500D03*
Y60500D03*
Y90500D03*
Y85500D03*
Y80500D03*
Y75500D03*
Y95500D03*
X83000Y70500D03*
Y65500D03*
Y60500D03*
Y90500D03*
Y85500D03*
Y80500D03*
Y75500D03*
Y95500D03*
G54D11*
X11524Y22500D03*
Y88500D03*
X39476Y22500D03*
Y88500D03*
G54D12*
X11634Y130811D03*
X22657D03*
X32106D03*
X43130D03*
G54D30*
X184161Y129331D03*
X220972D03*
G54D21*
X57817Y121000D03*
X92683D03*
X113567D03*
X148433D03*
G54D31*
X195185Y117126D03*
X200106D03*
X205035D03*
X209941D03*
G54D22*
X81800Y9892D03*
X124800D03*
X169800D03*
X173000Y119500D03*
X221108Y24800D03*
Y60800D03*
G54D13*
X13795Y55500D03*
G54D32*
G01X71500Y106000D02*
Y118500D01*
X69000Y121000D01*
X57817D01*
G01X81800Y9892D02*
Y15700D01*
X81000Y16500D01*
Y19850D01*
G01X123465Y66579D02*
X119000D01*
X118221Y65800D01*
X98800D01*
X88500Y55500D01*
Y31000D01*
X83800Y26300D01*
Y23800D01*
X81000Y21000D01*
Y19850D01*
G01X83000Y90500D02*
X77500D01*
X73500Y94500D01*
Y103500D01*
X71500Y105500D01*
Y106000D01*
G01X78500D02*
X75500Y103000D01*
Y97000D01*
X77000Y95500D01*
X83000D01*
G01X78500Y106000D02*
Y117500D01*
X82000Y121000D01*
X92683D01*
G01X98000Y19850D02*
Y15500D01*
X96800Y14300D01*
Y9892D01*
G01X98000Y19850D02*
X95350Y22500D01*
Y25650D01*
X90250Y30750D01*
Y54750D01*
X99700Y64200D01*
X119590D01*
X120000Y64610D01*
X123465D01*
G01X124800Y9892D02*
Y15700D01*
X124000Y16500D01*
Y19850D01*
G01X129173Y54965D02*
Y32172D01*
X126650Y29649D01*
Y22500D01*
X124000Y19850D01*
G01X123465Y62642D02*
X128000D01*
G01X119173Y60673D02*
X123465D01*
G01X113567Y121000D02*
X125500D01*
X129900Y116600D01*
Y109250D01*
X127650Y107000D01*
G01X141000Y19850D02*
Y15500D01*
X139800Y14300D01*
Y9892D01*
G01X131142Y54965D02*
Y32858D01*
X138350Y25650D01*
Y22500D01*
X141000Y19850D01*
G01X186000D02*
X183350Y22500D01*
Y28150D01*
X174500Y37000D01*
X143000D01*
X135079Y44921D01*
Y54965D01*
G01X133110D02*
Y44390D01*
X142500Y35000D01*
X169500D01*
X171650Y32850D01*
Y31669D01*
X171700Y31619D01*
Y23200D01*
X169000Y20500D01*
Y19850D01*
G01X137047Y88035D02*
Y83500D01*
G01X134000Y107000D02*
Y104500D01*
X135400Y103100D01*
X137400D01*
X142953Y97547D01*
Y88035D01*
G01X140984D02*
Y97016D01*
X136500Y101500D01*
X133150D01*
X127650Y107000D01*
G01X135079Y88035D02*
Y90921D01*
G01X168000Y107500D02*
Y104500D01*
X166100Y102600D01*
X150837D01*
X150737Y102500D01*
X150000D01*
X144921Y97421D01*
Y88035D01*
G01X148433Y121000D02*
X136000D01*
X131542Y116542D01*
Y109308D01*
X133850Y107000D01*
X134000D01*
G01X127650D02*
X127500D01*
G01X148250Y51250D02*
X148858Y51858D01*
Y54965D01*
G01X150827Y52173D02*
Y54965D01*
G01X211150Y24000D02*
X211000D01*
X208200Y26800D01*
X206492D01*
X197792Y35500D01*
X186500D01*
X174000Y48000D01*
X167237D01*
X160900Y54337D01*
Y67100D01*
X159453Y68547D01*
X156535D01*
G01X148858Y59500D02*
Y54965D01*
G01X211150Y41000D02*
X211000D01*
X208200Y38200D01*
X187300D01*
X175000Y50500D01*
X167000D01*
X162500Y55000D01*
Y68500D01*
X160484Y70516D01*
X156535D01*
G01Y80358D02*
X152000D01*
G01X150827Y90827D02*
Y88035D01*
G01X156535Y82327D02*
X160500D01*
G01X146890Y88035D02*
Y96390D01*
X151500Y101000D01*
X169100D01*
X173000Y104900D01*
Y107500D01*
G01X211150Y77000D02*
X208150Y74000D01*
X184501D01*
X179701Y78800D01*
X174218D01*
X162931Y78750D01*
X162571Y78390D01*
X156535D01*
G01X211150Y60000D02*
X208350Y62800D01*
X206700D01*
X204500Y65000D01*
Y69500D01*
X202500Y71500D01*
X184737D01*
X179037Y77200D01*
X174881D01*
X174831Y77150D01*
X163595D01*
X163234Y76790D01*
X162865Y76421D01*
X156535D01*
G01X186000Y19850D02*
Y15500D01*
X184800Y14300D01*
Y9892D01*
G01X169800D02*
Y15700D01*
X169000Y16500D01*
Y19850D01*
G01X173000Y119500D02*
Y107500D01*
G01X168000Y119500D02*
Y107500D01*
G01X221108Y24800D02*
X215800D01*
X215000Y24000D01*
X211150D01*
G01Y41000D02*
X216000D01*
X217200Y39800D01*
X221108D01*
G01Y60800D02*
X215300D01*
X214500Y60000D01*
X211150D01*
G01Y77000D02*
X215500D01*
X216700Y75800D01*
X221108D01*
G54D23*
X86800Y9892D03*
X96800D03*
X91800D03*
X139800D03*
X134800D03*
X129800D03*
X184800D03*
X179800D03*
X174800D03*
X168000Y119500D03*
X221108Y29800D03*
Y39800D03*
Y34800D03*
Y70800D03*
Y65800D03*
Y75800D03*
G54D14*
X19508Y122346D03*
X35256D03*
G54D33*
G01X86800Y9892D02*
Y19200D01*
X86500Y19500D01*
G01D02*
Y23000D01*
G01X81000Y26150D02*
Y30500D01*
G01X98000Y26150D02*
Y30500D01*
G01X124000Y26150D02*
Y30500D01*
G01X113500Y89000D02*
Y85500D01*
G01X119500Y88850D02*
Y85350D01*
G01X129800Y9892D02*
Y19200D01*
X129500Y19500D01*
G01D02*
Y23000D01*
G01X141000Y26150D02*
Y30500D01*
G01X148858Y59500D02*
Y65858D01*
G01X174800Y9892D02*
Y19200D01*
X174500Y19500D01*
G01D02*
Y23000D01*
G01X169000Y26150D02*
Y30500D01*
G01X186000Y26150D02*
Y30500D01*
G01X204850Y41000D02*
X201000D01*
G01X204850Y60000D02*
X201000D01*
G01X204850Y77000D02*
X201000D01*
G01X202850Y99500D02*
Y92040D01*
X202890Y92000D01*
G01X195185Y117126D02*
X190752D01*
G01X195185D02*
Y111059D01*
G01X208500Y29500D02*
X211500D01*
G01D02*
X212000D01*
X212300Y29800D01*
X221108D01*
G01Y34800D02*
X212200D01*
X211500Y35500D01*
G01X221608Y34800D02*
X221108D01*
G01X211500Y71500D02*
X212200Y70800D01*
X221108D01*
G01X211500Y65500D02*
X208000D01*
G01X221108Y65800D02*
X211800D01*
X211500Y65500D01*
G01X209941Y117126D02*
Y111059D01*
G01Y117126D02*
X214374D01*
G54D15*
X22264Y119000D03*
X24823D03*
X27382D03*
X29941D03*
X32500D03*
G54D24*
X81000Y19850D03*
Y26150D03*
X98000Y19850D03*
Y26150D03*
X124000Y19850D03*
Y26150D03*
X119500Y88850D03*
Y95150D03*
X141000Y19850D03*
Y26150D03*
X186000Y19850D03*
Y26150D03*
X169000Y19850D03*
Y26150D03*
G54D34*
G01X91800Y9892D02*
Y6200D01*
G01X92500Y19500D02*
X91800Y18800D01*
Y9892D01*
G01X134800D02*
Y18800D01*
X135500Y19500D01*
G01X134800Y9892D02*
Y5700D01*
G01X180500Y19500D02*
X179800Y18800D01*
Y9892D01*
G01X225200Y34800D02*
X221608D01*
G01X221108Y70800D02*
X224700D01*
G54D16*
X38205Y46445D03*
Y64555D03*
Y55500D03*
G54D25*
X107350Y68500D03*
X113650D03*
X165650Y68036D03*
X165850Y74500D03*
X171950Y68036D03*
X172150Y74500D03*
X204850Y24000D03*
Y41000D03*
Y60000D03*
Y77000D03*
X202850Y99500D03*
X211150Y24000D03*
Y41000D03*
Y60000D03*
Y77000D03*
X209150Y99500D03*
G54D35*
G01X179800Y9892D02*
Y6700D01*
G54D26*
X102500Y76161D03*
Y108839D03*
G54D17*
X52500Y19500D03*
Y25500D03*
X91000Y81500D03*
Y75500D03*
X113500Y89000D03*
Y95000D03*
X211500Y29500D03*
Y35500D03*
Y65500D03*
Y71500D03*
G54D36*
G01X22264Y119000D02*
Y111361D01*
G01X18500Y119000D02*
X22264D01*
G01X32500Y113500D02*
X34000Y112000D01*
G01X32500Y119000D02*
Y113500D01*
G01X65500Y106000D02*
X62000D01*
G01X83000Y60500D02*
X77000D01*
G01X84500Y106000D02*
X88000D01*
G01X99896Y52000D02*
Y58000D01*
G01X102500Y70502D02*
Y70500D01*
G01D02*
X104500Y68500D01*
X107350D01*
G01X91000Y81500D02*
Y85500D01*
G01X102500Y76161D02*
X97500D01*
G01X102500D02*
X107161D01*
G01X102500D02*
Y82000D01*
G01X108000Y61500D02*
Y58000D01*
G01X114000Y61500D02*
X118346D01*
X119173Y60673D01*
G01X121500Y107000D02*
X118000D01*
G01X145613Y42113D02*
X147500Y44000D01*
Y46500D01*
G01X135079Y90921D02*
X134000Y92000D01*
Y92200D01*
G01X140000Y107000D02*
X143500D01*
G01X128000Y95500D02*
Y98764D01*
X128018Y98782D01*
G01X134000Y92200D02*
Y95500D01*
G01X147500Y46500D02*
Y50500D01*
G01D02*
X148250Y51250D01*
G01X153500Y46500D02*
Y48327D01*
X150827Y51000D01*
Y52173D01*
G01X153500Y46500D02*
Y43000D01*
G01X165890Y61500D02*
Y58110D01*
X168000Y56000D01*
G01X153500Y95500D02*
X150827Y92827D01*
Y90827D01*
G01X160500Y82327D02*
X165173D01*
X165500Y82000D01*
G01D02*
Y86000D01*
G01X162000Y107500D02*
X158500D01*
G01X159500Y95500D02*
X163000D01*
G01X156000Y92000D02*
Y93000D01*
X153500Y95500D01*
G01X171500Y82000D02*
Y91500D01*
G01X172150Y74500D02*
X175000D01*
X177500Y72000D01*
G01X179000Y107500D02*
X182500D01*
G01X204850Y24000D02*
X201500D01*
X200500Y23000D01*
G01X209110Y92000D02*
X213500D01*
G01X209150Y99500D02*
X213500D01*
G54D18*
X59396Y44500D03*
X71604D03*
X99896Y52000D03*
X112104D03*
G54D27*
X123465Y60673D03*
Y62642D03*
Y64610D03*
Y66579D03*
Y68547D03*
Y70516D03*
Y72484D03*
Y74453D03*
Y76421D03*
Y78390D03*
Y80358D03*
Y82327D03*
X156535Y70516D03*
Y68547D03*
Y66579D03*
Y64610D03*
Y62642D03*
Y60673D03*
Y82327D03*
Y80358D03*
Y78390D03*
Y76421D03*
Y74453D03*
Y72484D03*
G54D37*
G01X0Y0D02*
Y140000D01*
X230000D01*
Y0D01*
X0D01*
G01X27000Y110500D02*
Y112000D01*
X27382Y112382D01*
Y119000D01*
G01X30500Y110500D02*
Y112000D01*
X29941Y112559D01*
Y119000D01*
G01X83000Y65500D02*
X89500D01*
G01X94500D02*
X89500Y70500D01*
X83000D01*
G01X76000Y81000D02*
X78500D01*
X79000Y80500D01*
X83000D01*
G01X76000Y84900D02*
X78400D01*
X79000Y85500D01*
X83000D01*
G01Y75500D02*
X91000D01*
G01X102500Y108839D02*
Y101000D01*
X108500Y95000D01*
X113500D01*
G01X123465Y68547D02*
X113697D01*
X113650Y68500D01*
G01X113500Y95000D02*
X119350D01*
X119500Y95150D01*
G01X139016Y88035D02*
Y96484D01*
X136000Y99500D01*
X132000D01*
X130200Y101300D01*
X125650D01*
X119500Y95150D01*
G01X145500Y62500D02*
Y59000D01*
X146890Y57610D01*
Y54965D01*
G01X136500Y62500D02*
X139016Y59984D01*
Y54965D01*
G01X136500Y67000D02*
X140984Y62516D01*
Y54965D01*
G01X152201Y62700D02*
X154228Y60673D01*
X156535D01*
G01Y72484D02*
X161202D01*
X165650Y68036D01*
G01X165850Y74500D02*
X156582D01*
X156535Y74453D01*
G01X171950Y68036D02*
Y61660D01*
X172110Y61500D01*
G01X183100Y80000D02*
Y84600D01*
X196500Y98000D01*
Y105000D01*
X200106Y108606D01*
Y117126D01*
G01X205035D02*
Y109535D01*
X198500Y103000D01*
Y96000D01*
X187000Y84500D01*
Y80000D01*
G54D28*
X144921Y54965D03*
X142953D03*
X140984D03*
X139016D03*
X137047D03*
X135079D03*
X133110D03*
X131142D03*
X129173D03*
Y88035D03*
X131142D03*
X133110D03*
X135079D03*
X137047D03*
X139016D03*
X140984D03*
X142953D03*
X144921D03*
X150827Y54965D03*
X148858D03*
X146890D03*
Y88035D03*
X148858D03*
X150827D03*
G54D19*
X57500Y53000D03*
X63500D03*
X65500Y106000D03*
X86500Y19500D03*
X71500Y106000D03*
X84500D03*
X78500D03*
X92500Y19500D03*
X108000Y61500D03*
X114000D03*
X121500Y107000D03*
X127500D03*
X128000Y95500D03*
X129500Y19500D03*
X135500D03*
X147500Y46500D03*
X140000Y107000D03*
X134000D03*
Y95500D03*
X153500Y46500D03*
X165500Y82000D03*
X162000Y107500D03*
X153500Y95500D03*
X159500D03*
X174500Y19500D03*
X180500D03*
X171500Y82000D03*
X179000Y107500D03*
X173000D03*
X168000D03*
G54D29*
X165890Y61500D03*
X172110D03*
X202890Y92000D03*
X209110D03*
M02*
