G04 ================== begin FILE IDENTIFICATION RECORD ==================*
G04 Layout Name:  SHT85-Demo.brd*
G04 Film Name:    02_BOTTOM*
G04 File Format:  Gerber RS274X*
G04 File Origin:  Cadence Allegro 16.6-2015-S108*
G04 Origin Date:  Mon Oct 14 19:41:10 2019*
G04 *
G04 Layer:  BOARD GEOMETRY/OUTLINE*
G04 Layer:  ETCH/BOTTOM*
G04 Layer:  PIN/BOTTOM*
G04 Layer:  VIA CLASS/BOTTOM*
G04 *
G04 Offset:    (0.00 0.00)*
G04 Mirror:    No*
G04 Mode:      Positive*
G04 Rotation:  0*
G04 FullContactRelief:  No*
G04 UndefLineWidth:     6.00*
G04 ================== end FILE IDENTIFICATION RECORD ====================*
%FSLAX25Y25*MOIN*%
%IR0*IPPOS*OFA0.00000B0.00000*MIA0B0*SFA1.00000B1.00000*%
%ADD10C,.024*%
%ADD11C,.02362*%
%ADD13C,.03937*%
%ADD12R,.03937X.03937*%
%ADD14C,.02*%
%ADD15C,.03*%
%ADD16C,.04*%
%ADD17C,.015*%
%ADD18C,.006*%
%ADD19C,.04966*%
G75*
%LPD*%
G75*
G36*
G01X2001Y2001D02*
Y137999D01*
X227999D01*
Y2001D01*
X2001D01*
G37*
%LPC*%
G75*
G36*
G01X169030Y115530D02*
Y115666D01*
G02Y123334I-1030J3834D01*
G01Y123470D01*
X176970D01*
Y115530D01*
X169030D01*
G37*
G36*
G01X173770Y6058D02*
Y5922D01*
X165830D01*
Y13862D01*
X173770D01*
Y13726D01*
G02X177419Y12875I1030J-3834D01*
G03X178705Y12653I824J940D01*
G02X180895I1095J-2761D01*
G03X182181Y12875I462J1162D01*
G02Y6909I2619J-2983D01*
G03X180895Y7131I-824J-940D01*
G02X178705I-1095J2761D01*
G03X177419Y6909I-462J-1162D01*
G02X173770Y6058I-2619J2983D01*
G37*
G36*
G01X128770D02*
Y5922D01*
X120830D01*
Y13862D01*
X128770D01*
Y13726D01*
G02X132419Y12875I1030J-3834D01*
G03X133705Y12653I824J940D01*
G02X135895I1095J-2761D01*
G03X137181Y12875I462J1162D01*
G02Y6909I2619J-2983D01*
G03X135895Y7131I-824J-940D01*
G02X133705I-1095J2761D01*
G03X132419Y6909I-462J-1162D01*
G02X128770Y6058I-2619J2983D01*
G37*
G36*
G01X225078Y29884D02*
Y20830D01*
X217138D01*
Y29884D01*
X217139Y29909D01*
Y29912D01*
X217142Y29974D01*
G02X217268Y30808I3966J-173D01*
G02X218125Y32419I3839J-1009D01*
G03X218347Y33705I-940J824D01*
G02Y35895I2761J1095D01*
G03X218125Y37181I-1162J462D01*
G02X224091I2983J2619D01*
G03X223869Y35895I940J-824D01*
G02Y33705I-2761J-1095D01*
G03X224091Y32419I1162J-462D01*
G02X224948Y30808I-2982J-2620D01*
G02X225075Y29945I-3840J-1006D01*
G01X225076Y29931D01*
X225077Y29898D01*
X225078Y29884D01*
G37*
G36*
G01X74248Y87086D02*
G02X78011Y82950I1751J-2187D01*
G02X74248Y78814I-2012J-1949D01*
G02X74019Y79019I1751J2186D01*
G01X73340Y79698D01*
X69642D01*
X62142Y87198D01*
X42340D01*
X25498Y104040D01*
Y108040D01*
X25019Y108519D01*
G02X28750Y112688I1980J1982D01*
G02X32611Y108658I1751J-2187D01*
G01X32302Y108304D01*
Y107160D01*
X45160Y94302D01*
X64660D01*
X72460Y86502D01*
X73640D01*
X74019Y86881D01*
G02X74248Y87086I1980J-1981D01*
G37*
G36*
G01X85770Y5922D02*
X77830D01*
Y14498D01*
X67843D01*
X60336Y22005D01*
X59329Y20998D01*
X51171D01*
X48998Y23171D01*
Y33498D01*
X44671D01*
X31998Y46171D01*
Y73002D01*
X41829D01*
X45002Y69829D01*
Y48329D01*
X49329Y44002D01*
X61329D01*
X63232Y42098D01*
X71635Y50502D01*
X109785D01*
X110498Y51215D01*
Y55829D01*
X113171Y58502D01*
X133519D01*
G03X134403Y60635I0J1250D01*
G01X132340Y62698D01*
X118160D01*
X116660Y61198D01*
X98840D01*
X97340Y62698D01*
X94500D01*
G02X92771Y63295I0J2802D01*
G03X91229I-771J-983D01*
G02X87519Y67481I-1729J2205D01*
G01X90840Y70802D01*
X100660D01*
X102660Y68802D01*
X112840D01*
X113840Y69802D01*
X136500D01*
G02X138830Y65444I0J-2802D01*
G03Y64056I1039J-694D01*
G02X139187Y61708I-2330J-1555D01*
G03X141585Y58502I2398J-706D01*
G01X143773D01*
Y60240D01*
X143442Y60599D01*
G02X143519Y64481I2058J1901D01*
G01X147340Y68302D01*
X159840D01*
X169269Y77731D01*
G03X167501Y81998I-1768J1767D01*
G01X165500D01*
G02X162671Y83171I1J4001D01*
G01X157843Y87998D01*
X156000D01*
G02X154906Y88151I2J4002D01*
G01X154739Y88198D01*
X128007D01*
X122329Y82521D01*
G02X116671Y88179I-2829J2829D01*
G01X124693Y96202D01*
X157457D01*
X157657Y96002D01*
X161157D01*
X167157Y90002D01*
X189498D01*
Y103865D01*
X202635Y117002D01*
X206498D01*
Y121002D01*
X216329D01*
X219002Y118329D01*
Y110171D01*
X216752Y107921D01*
Y99500D01*
G02X210248I-3252J0D01*
G01Y105998D01*
X209171D01*
X207171Y107998D01*
X206365D01*
X198502Y100135D01*
Y82751D01*
G03X201001Y80251I2500J0D01*
G02X204252Y77000I0J-3251D01*
G01Y71880D01*
G03X207232Y69427I2500J0D01*
G02X210829Y68329I767J-3927D01*
G01X215004Y64155D01*
G03X217138Y65039I884J884D01*
G01Y65884D01*
X217142Y65967D01*
G02X218125Y68419I3966J-167D01*
G03X218347Y69705I-940J824D01*
G02Y71895I2761J1095D01*
G03X218125Y73181I-1162J462D01*
G02X224091I2983J2619D01*
G03X223869Y71895I940J-824D01*
G02Y69705I-2761J-1095D01*
G03X224091Y68419I1162J-462D01*
G02X225074Y65967I-2983J-2619D01*
G01X225078Y65884D01*
Y56830D01*
X215002D01*
Y30343D01*
X203657Y18998D01*
X88157D01*
X84564Y15405D01*
X85203Y13862D01*
X85770D01*
Y13726D01*
G02X89419Y12875I1030J-3834D01*
G03X90705Y12653I824J940D01*
G02X92895I1095J-2761D01*
G03X94181Y12875I462J1162D01*
G02Y6909I2619J-2983D01*
G03X92895Y7131I-824J-940D01*
G02X90705I-1095J2761D01*
G03X89419Y6909I-462J-1162D01*
G02X85770Y6058I-2619J2983D01*
G01Y5922D01*
G37*
G54D19*
X19508Y122346D03*
X35256D03*
%LPD*%
G75*
G36*
G01X60500Y35500D02*
X45500D01*
X34000Y47000D01*
Y71000D01*
X41000D01*
X43000Y69000D01*
Y47500D01*
X48500Y42000D01*
X60500D01*
X61500Y41000D01*
Y39659D01*
X61498Y39657D01*
Y36498D01*
X60500Y35500D01*
G37*
G36*
G01X52000Y23000D02*
X51000Y24000D01*
Y30000D01*
X58000D01*
X59500Y28500D01*
Y24000D01*
X58500Y23000D01*
X52000D01*
G37*
G36*
G01X153500Y38498D02*
X176865D01*
X190000Y51633D01*
Y67133D01*
X193481Y70615D01*
G02X197748Y68847I1767J-1768D01*
G01Y42347D01*
X189153Y33752D01*
X81000D01*
G03X78701Y32799I1J-3252D01*
G01X76653Y30752D01*
X70002D01*
Y36135D01*
X75365Y41498D01*
X113515D01*
X117515Y45498D01*
X119329D01*
X122502Y48671D01*
Y49498D01*
X140635D01*
X150317Y39817D01*
G03X153500Y38498I3184J3183D01*
G37*
G36*
G01X112500Y47500D02*
Y55000D01*
X114000Y56500D01*
X119500D01*
X120500Y55500D01*
Y49500D01*
X118500Y47500D01*
X112500D01*
G37*
G36*
G01X155365Y47502D02*
X146596Y56271D01*
G02X147013Y60142I1768J1768D01*
G03X147481Y60519I-1513J2358D01*
G01X148977Y62015D01*
X149920Y61071D01*
X149971Y61004D01*
G03X152201Y59898I2230J1695D01*
G01X162360D01*
X179792Y77330D01*
X182235D01*
X182391Y77290D01*
G03X184140Y77399I709J2710D01*
G01X184905Y77705D01*
X186372Y76238D01*
X180996Y70863D01*
Y55363D01*
X173135Y47502D01*
X155365D01*
G37*
G36*
G01X210000Y108000D02*
X208500Y109500D01*
Y119000D01*
X215500D01*
X217000Y117500D01*
Y111000D01*
X214000Y108000D01*
X210000D01*
G37*
G54D10*
X3500Y12000D03*
Y7000D03*
X6500Y3500D03*
X3500Y32000D03*
Y27000D03*
Y22000D03*
Y17000D03*
Y52000D03*
Y47000D03*
Y42000D03*
Y37000D03*
Y67000D03*
Y62000D03*
Y57000D03*
Y87000D03*
Y82000D03*
Y77000D03*
Y72000D03*
Y107000D03*
Y102000D03*
Y97000D03*
Y92000D03*
Y127000D03*
Y122000D03*
Y117000D03*
Y112000D03*
X3701Y136299D03*
X3500Y132000D03*
X12500Y12000D03*
X17500D03*
X22500D03*
X27500D03*
X11500Y3500D03*
X16500D03*
X21500D03*
X26500D03*
X27500Y17000D03*
Y22000D03*
Y27000D03*
Y32000D03*
Y37000D03*
Y42000D03*
X22500D03*
X17500D03*
X12500D03*
X13000Y71500D03*
Y76500D03*
Y81500D03*
Y102000D03*
Y107000D03*
X27000Y110500D03*
X13000Y112000D03*
X47500Y12000D03*
X42500D03*
X37500D03*
X32500D03*
X31500Y3500D03*
X36500D03*
X41500D03*
X46500D03*
X49000Y62000D03*
X40000Y69000D03*
X35500D03*
X30500Y110500D03*
X67500Y12000D03*
X62500D03*
X57500D03*
X52500D03*
X51500Y3500D03*
X56500D03*
X61500D03*
X66500D03*
X55800Y25200D03*
Y28500D03*
X52500D03*
X60150Y39200D03*
X57000D03*
X68500Y62500D03*
Y67500D03*
X51500Y71500D03*
Y66500D03*
X67000Y53000D03*
X68500Y72500D03*
Y77500D03*
X51500Y81500D03*
Y76500D03*
X68500Y95000D03*
X66000Y101000D03*
X61000D03*
X56000D03*
Y106000D03*
Y111000D03*
X51000D03*
Y106000D03*
Y101000D03*
Y96000D03*
X62000Y106000D03*
X65500Y136500D03*
X60500D03*
X55500D03*
X50500D03*
X71500Y3500D03*
X76500D03*
X81500D03*
X86500D03*
Y23000D03*
X81000Y30500D03*
X73500Y33500D03*
X76500Y38000D03*
X81500D03*
X69500Y50000D03*
X70500Y57500D03*
X75000Y56500D03*
X80000Y52500D03*
X73500Y67500D03*
Y62500D03*
X77000Y60500D03*
X72000Y53000D03*
X73500Y72500D03*
X76000Y81000D03*
Y84900D03*
X88000Y106000D03*
X84500Y113000D03*
X75500Y129500D03*
X80500D03*
X70500D03*
X85500Y136500D03*
X80500D03*
X75500D03*
X70500D03*
X91500Y3500D03*
X96500D03*
X101500D03*
X106500D03*
Y15000D03*
X98000Y30500D03*
X107000Y38000D03*
X102000D03*
X97000D03*
X108000Y58000D03*
X99896D03*
X102500Y70502D03*
X94500Y65500D03*
X89500D03*
X102500Y87000D03*
X91000Y85500D03*
X102500Y82000D03*
X107161Y76161D03*
X97500D03*
X102500Y92000D03*
X89500Y113000D03*
X94500D03*
X105500Y136500D03*
X100500D03*
X95500D03*
X90500D03*
X111500Y3500D03*
X116500D03*
X121500D03*
X126500D03*
X116500Y15000D03*
X111500D03*
X124000Y30500D03*
X122000Y43000D03*
Y38000D03*
X117000D03*
X112000D03*
X116500Y50850D03*
X128000Y62642D03*
X116500Y54000D03*
X113500Y85500D03*
X119500Y85350D03*
X128018Y98782D03*
X118000Y107000D03*
X111500Y113000D03*
X116500D03*
X121500D03*
X125500Y129500D03*
Y136500D03*
X120500D03*
X115500D03*
X110500D03*
X131500Y3500D03*
X136500D03*
X141500D03*
X146500D03*
X129500Y23000D03*
X141000Y30500D03*
X143000Y44500D03*
X140500Y47000D03*
X145613Y42113D03*
X147047Y68500D03*
X142047D03*
X145500Y62500D03*
X136500D03*
Y67000D03*
X142047Y73500D03*
X147047D03*
Y78500D03*
X142047D03*
X132047D03*
Y73500D03*
X137047D03*
Y78500D03*
Y83500D03*
X143500Y107000D03*
X134000Y92200D03*
X146000Y113000D03*
X141000D03*
X135500Y129500D03*
X130500D03*
X145500Y136500D03*
X140500D03*
X135500D03*
X130500D03*
X151500Y3500D03*
X156500D03*
X161500D03*
X166500D03*
X161500Y15500D03*
X156500D03*
X151500D03*
X153500Y43000D03*
X148858Y59500D03*
X152201Y62700D03*
X152000Y80358D03*
X165500Y86000D03*
X158500Y107500D03*
X163000Y95500D03*
X156000Y92000D03*
Y113000D03*
X151000D03*
X165500Y136500D03*
X160500D03*
X155500D03*
X150500D03*
X171500Y3500D03*
X176500D03*
X181500D03*
X186500D03*
X174500Y23000D03*
X169000Y30500D03*
X186000D03*
X177500Y68000D03*
Y63000D03*
Y58000D03*
X168000Y56000D03*
X171500Y91500D03*
X177500Y72000D03*
X187000Y80000D03*
X183100D03*
X182500Y103000D03*
Y98000D03*
Y93000D03*
Y107500D03*
X185500Y113000D03*
X180500D03*
X175500Y136500D03*
X170500D03*
X191500Y3500D03*
X196500D03*
X201500D03*
X206500D03*
Y15000D03*
X201500D03*
X196500D03*
X200500Y23000D03*
X193500Y48500D03*
X201000Y41000D03*
X193500Y63500D03*
Y58500D03*
Y53500D03*
X201000Y60000D03*
Y77000D03*
X195185Y111059D03*
X190500Y113000D03*
X206000Y125500D03*
X201000D03*
X196000D03*
X205500Y131000D03*
X200500D03*
X195500D03*
X190752Y117126D03*
X205500Y136500D03*
X200500D03*
X195500D03*
X211500Y3500D03*
X216500D03*
X221500D03*
X225500Y6500D03*
Y11500D03*
Y21500D03*
Y26500D03*
Y31500D03*
Y16500D03*
X208500Y29500D03*
X225500Y36500D03*
Y41500D03*
Y46500D03*
Y51500D03*
Y56500D03*
Y61500D03*
Y66500D03*
Y71500D03*
X208000Y65500D03*
X220000Y82000D03*
Y87000D03*
X209000Y82000D03*
Y87000D03*
X225500Y76500D03*
Y81500D03*
Y86500D03*
Y91500D03*
X219500Y94500D03*
Y99500D03*
X225500Y96500D03*
Y101500D03*
Y106500D03*
X213500Y92000D03*
Y99500D03*
X209941Y111059D03*
X211000Y125500D03*
X210500Y131000D03*
X225500Y111500D03*
Y116500D03*
X214374Y117126D03*
X210500Y136500D03*
G54D11*
X19508Y122346D03*
X35256D03*
G54D12*
X81800Y9892D03*
X124800D03*
X169800D03*
X173000Y119500D03*
X221108Y24800D03*
Y60800D03*
G54D13*
X86800Y9892D03*
X96800D03*
X91800D03*
X139800D03*
X134800D03*
X129800D03*
X184800D03*
X179800D03*
X174800D03*
X168000Y119500D03*
X221108Y29800D03*
Y39800D03*
Y34800D03*
Y70800D03*
Y65800D03*
Y75800D03*
G54D14*
G01X91800Y5671D02*
Y9892D01*
G01D02*
Y14113D01*
G01X134800Y5671D02*
Y9892D01*
G01D02*
Y14113D01*
G01X179800Y5671D02*
Y9892D01*
G01D02*
Y14113D01*
G01X216887Y34800D02*
X221108D01*
G01D02*
X225329D01*
G01X216887Y70800D02*
X221108D01*
G01D02*
X225329D01*
G54D15*
G01X86500Y23000D02*
X82000Y18500D01*
X69500D01*
X65500Y22500D01*
Y27500D01*
G01X129500Y23000D02*
X86500D01*
G01X134000Y92200D02*
X126350D01*
X119500Y85350D01*
G01X129500Y23000D02*
X174500D01*
G01X134000Y92200D02*
X155800D01*
X156000Y92000D01*
G01D02*
X159500D01*
X165500Y86000D01*
G01X194000D02*
X165500D01*
G01X200500Y23000D02*
X174500D01*
G01X200500D02*
X202000D01*
X208500Y29500D01*
G01D02*
X211000Y32000D01*
Y62500D01*
X208000Y65500D01*
G54D16*
G01X65500Y27500D02*
X57500D01*
G01X65500D02*
Y38000D01*
X73500Y46000D01*
X111650D01*
X116500Y50850D01*
G01Y54000D02*
Y50850D01*
G01Y54000D02*
X142500D01*
X153500Y43000D01*
G01D02*
X175000D01*
X185498Y53498D01*
Y68998D01*
X194000Y77500D01*
Y86000D01*
G01X211500Y112500D02*
X204500D01*
X194000Y102000D01*
Y86000D01*
G54D17*
G01X81000Y30500D02*
X78000Y27500D01*
X65500D01*
G01X81000Y30500D02*
X98000D01*
G01D02*
X124000D01*
G01D02*
X141000D01*
G01D02*
X169000D01*
G01X186000D02*
X190500D01*
X201000Y41000D01*
G01X169000Y30500D02*
X186000D01*
G01X201000Y41000D02*
Y60000D01*
G01D02*
Y77000D01*
G01X213500Y99500D02*
Y109500D01*
G54D18*
G01X0Y0D02*
Y140000D01*
X230000D01*
Y0D01*
X0D01*
G01X76000Y81000D02*
X74500Y82500D01*
X70802D01*
X63302Y90000D01*
X43500D01*
X28300Y105200D01*
Y109200D01*
X27000Y110500D01*
G01X30500D02*
X29500Y109500D01*
Y106000D01*
X44000Y91500D01*
X63500D01*
X71300Y83700D01*
X74800D01*
X76000Y84900D01*
G01X94500Y65500D02*
X98500D01*
X100000Y64000D01*
X115500D01*
X117000Y65500D01*
X133500D01*
X136500Y62500D01*
G01X89500Y65500D02*
X92000Y68000D01*
X99500D01*
X101500Y66000D01*
X114000D01*
X115000Y67000D01*
X136500D01*
G01X187000Y80000D02*
X184500Y82500D01*
X178000D01*
X161000Y65500D01*
X148500D01*
X145500Y62500D01*
G01X152201Y62700D02*
X161200D01*
X178632Y80132D01*
X182968D01*
X183100Y80000D01*
M02*
